<svg viewBox="0 0 800 500" xmlns="http://www.w3.org/2000/svg">
  <!-- 背景和标题 -->
  <rect width="800" height="500" fill="#f8f9fa" rx="10" ry="10" />
  <text x="400" y="40" font-family="Arial" font-size="24" text-anchor="middle" font-weight="bold">Kafka消费模式: 负载均衡 vs 消息广播</text>
  
  <!-- 左侧：负载均衡模式 -->
  <g transform="translate(30, 80)">
    <text x="180" y="20" font-family="Arial" font-size="20" text-anchor="middle" font-weight="bold" fill="#2c3e50">负载均衡模式</text>
    <text x="180" y="45" font-family="Arial" font-size="14" text-anchor="middle" fill="#555">(相同的消费组ID)</text>
    
    <!-- Kafka主题框 -->
    <rect x="60" y="60" width="240" height="100" fill="#66b2ff" rx="5" ry="5" />
    <text x="180" y="80" font-family="Arial" font-size="16" text-anchor="middle" fill="white" font-weight="bold">主题 (Topic)</text>
    
    <!-- 分区 -->
    <rect x="80" y="90" width="60" height="60" fill="#0066cc" rx="3" ry="3" />
    <text x="110" y="125" font-family="Arial" font-size="14" text-anchor="middle" fill="white">分区 0</text>
    
    <rect x="150" y="90" width="60" height="60" fill="#0066cc" rx="3" ry="3" />
    <text x="180" y="125" font-family="Arial" font-size="14" text-anchor="middle" fill="white">分区 1</text>
    
    <rect x="220" y="90" width="60" height="60" fill="#0066cc" rx="3" ry="3" />
    <text x="250" y="125" font-family="Arial" font-size="14" text-anchor="middle" fill="white">分区 2</text>
    
    <!-- 消费者组 -->
    <rect x="60" y="210" width="240" height="40" fill="#4caf50" rx="5" ry="5" />
    <text x="180" y="235" font-family="Arial" font-size="16" text-anchor="middle" fill="white" font-weight="bold">消费者组 A</text>
    
    <!-- 消费者 -->
    <circle cx="110" cy="290" r="30" fill="#81c784" />
    <text x="110" y="295" font-family="Arial" font-size="14" text-anchor="middle" fill="white">消费者 1</text>
    
    <circle cx="180" cy="290" r="30" fill="#81c784" />
    <text x="180" y="295" font-family="Arial" font-size="14" text-anchor="middle" fill="white">消费者 2</text>
    
    <circle cx="250" cy="290" r="30" fill="#81c784" />
    <text x="250" y="295" font-family="Arial" font-size="14" text-anchor="middle" fill="white">消费者 3</text>
    
    <!-- 连接线 -->
    <line x1="110" y1="150" x2="110" y2="210" stroke="#555" stroke-width="2" stroke-dasharray="5,5" />
    <line x1="180" y1="150" x2="180" y2="210" stroke="#555" stroke-width="2" stroke-dasharray="5,5" />
    <line x1="250" y1="150" x2="250" y2="210" stroke="#555" stroke-width="2" stroke-dasharray="5,5" />
    
    <line x1="110" y1="250" x2="110" y2="260" stroke="#555" stroke-width="2" />
    <line x1="180" y1="250" x2="180" y2="260" stroke="#555" stroke-width="2" />
    <line x1="250" y1="250" x2="250" y2="260" stroke="#555" stroke-width="2" />
  </g>
  
  <!-- 右侧：消息广播模式 -->
  <g transform="translate(410, 80)">
    <text x="180" y="20" font-family="Arial" font-size="20" text-anchor="middle" font-weight="bold" fill="#2c3e50">消息广播模式</text>
    <text x="180" y="45" font-family="Arial" font-size="14" text-anchor="middle" fill="#555">(不同的消费组ID)</text>
    
    <!-- Kafka主题框 -->
    <rect x="60" y="60" width="240" height="100" fill="#66b2ff" rx="5" ry="5" />
    <text x="180" y="80" font-family="Arial" font-size="16" text-anchor="middle" fill="white" font-weight="bold">主题 (Topic)</text>
    
    <!-- 分区 -->
    <rect x="80" y="90" width="60" height="60" fill="#0066cc" rx="3" ry="3" />
    <text x="110" y="125" font-family="Arial" font-size="14" text-anchor="middle" fill="white">分区 0</text>
    
    <rect x="150" y="90" width="60" height="60" fill="#0066cc" rx="3" ry="3" />
    <text x="180" y="125" font-family="Arial" font-size="14" text-anchor="middle" fill="white">分区 1</text>
    
    <rect x="220" y="90" width="60" height="60" fill="#0066cc" rx="3" ry="3" />
    <text x="250" y="125" font-family="Arial" font-size="14" text-anchor="middle" fill="white">分区 2</text>
    
    <!-- 消费者组 A -->
    <rect x="30" y="210" width="130" height="40" fill="#4caf50" rx="5" ry="5" />
    <text x="95" y="235" font-family="Arial" font-size="16" text-anchor="middle" fill="white" font-weight="bold">消费者组 A</text>
    
    <!-- 消费者组 B -->
    <rect x="200" y="210" width="130" height="40" fill="#ff7043" rx="5" ry="5" />
    <text x="265" y="235" font-family="Arial" font-size="16" text-anchor="middle" fill="white" font-weight="bold">消费者组 B</text>
    
    <!-- 消费者组 A 的消费者 -->
    <circle cx="65" cy="290" r="25" fill="#81c784" />
    <text x="65" y="295" font-family="Arial" font-size="12" text-anchor="middle" fill="white">消费者 A1</text>
    
    <circle cx="125" cy="290" r="25" fill="#81c784" />
    <text x="125" y="295" font-family="Arial" font-size="12" text-anchor="middle" fill="white">消费者 A2</text>
    
    <!-- 消费者组 B 的消费者 -->
    <circle cx="235" cy="290" r="25" fill="#ffab91" />
    <text x="235" y="295" font-family="Arial" font-size="12" text-anchor="middle" fill="white">消费者 B1</text>
    
    <circle cx="295" cy="290" r="25" fill="#ffab91" />
    <text x="295" y="295" font-family="Arial" font-size="12" text-anchor="middle" fill="white">消费者 B2</text>
    
    <!-- 连接线 -->
    <line x1="110" y1="150" x2="95" y2="210" stroke="#555" stroke-width="2" stroke-dasharray="5,5" />
    <line x1="180" y1="150" x2="95" y2="210" stroke="#555" stroke-width="2" stroke-dasharray="5,5" />
    <line x1="250" y1="150" x2="95" y2="210" stroke="#555" stroke-width="2" stroke-dasharray="5,5" />
    
    <line x1="110" y1="150" x2="265" y2="210" stroke="#555" stroke-width="2" stroke-dasharray="5,5" />
    <line x1="180" y1="150" x2="265" y2="210" stroke="#555" stroke-width="2" stroke-dasharray="5,5" />
    <line x1="250" y1="150" x2="265" y2="210" stroke="#555" stroke-width="2" stroke-dasharray="5,5" />
    
    <line x1="65" y1="250" x2="65" y2="265" stroke="#555" stroke-width="2" />
    <line x1="125" y1="250" x2="125" y2="265" stroke="#555" stroke-width="2" />
    <line x1="235" y1="250" x2="235" y2="265" stroke="#555" stroke-width="2" />
    <line x1="295" y1="250" x2="295" y2="265" stroke="#555" stroke-width="2" />
  </g>
  
  <!-- 底部说明 -->
  <g transform="translate(50, 400)">
    <text x="0" y="20" font-family="Arial" font-size="16" font-weight="bold" fill="#2c3e50">负载均衡模式特点:</text>
    <text x="0" y="45" font-family="Arial" font-size="14" fill="#555">- 同一消费组内的消费者共同分担分区处理工作</text>
    <text x="0" y="70" font-family="Arial" font-size="14" fill="#555">- 每个分区在同一时间只能由消费组中的一个消费者处理</text>
    <text x="0" y="95" font-family="Arial" font-size="14" fill="#555">- 适用于需要扩展处理能力的场景</text>
  </g>
  
  <g transform="translate(430, 400)">
    <text x="0" y="20" font-family="Arial" font-size="16" font-weight="bold" fill="#2c3e50">消息广播模式特点:</text>
    <text x="0" y="45" font-family="Arial" font-size="14" fill="#555">- 不同消费组各自独立消费所有消息</text>
    <text x="0" y="70" font-family="Arial" font-size="14" fill="#555">- 每个消费组内仍可使用多个消费者并行处理</text>
    <text x="0" y="95" font-family="Arial" font-size="14" fill="#555">- 适用于多个应用需要处理相同数据流的场景</text>
  </g>
</svg>
